<svg version="1.1" id="Layer_1" xmlns="http://www.w3.org/2000/svg" xmlns:xlink="http://www.w3.org/1999/xlink" x="0px" y="0px"
	 width="100%" viewBox="0 0 496 496" enable-background="new 0 0 496 496" xml:space="preserve">
<path fill="#000000" opacity="1.000000" stroke="none" 
	d="
M321.164124,221.062317 
	C327.449402,220.867722 333.391418,220.867722 339.399506,220.867722 
	C339.283722,221.618088 339.344940,222.023071 339.170715,222.224579 
	C337.665466,223.966095 333.889069,222.441696 333.594940,225.553970 
	C333.126923,230.506699 332.725311,235.575821 333.824158,240.458115 
	C334.344025,242.767822 351.546661,242.968002 352.056763,240.650620 
	C353.196991,235.470703 353.337341,230.059891 351.999176,224.867386 
	C351.272949,222.049393 347.158691,224.326767 345.338104,220.840622 
	C353.547089,220.840622 361.397949,219.827347 368.819366,221.176392 
	C374.290588,222.170944 379.644470,222.802795 385.064941,222.567230 
	C391.450958,222.289688 398.037109,224.208984 404.225891,221.100739 
	C405.037354,220.693176 405.973236,221.174927 406.368164,221.939423 
	C407.986450,225.071960 410.188080,227.999023 410.452454,231.652390 
	C408.319489,232.587784 407.325134,231.225327 406.257996,230.276764 
	C404.467438,228.685196 402.385864,227.725983 400.130890,227.034042 
	C392.878540,224.808578 391.212708,226.008545 391.210785,233.532761 
	C391.208740,241.529831 391.262909,249.527161 391.213257,257.523895 
	C391.186035,261.901855 390.193848,266.756897 398.131317,266.328156 
	C397.733185,266.789978 397.335052,267.251831 396.936951,267.713684 
	C390.161530,267.713684 383.386139,267.713684 376.549225,267.713684 
	C376.647552,267.134003 376.644318,266.582397 376.759338,266.556519 
	C382.643341,265.233093 383.106262,261.042023 382.889008,255.984665 
	C382.574677,248.667572 382.931610,241.323776 382.747650,233.997772 
	C382.685516,231.522690 384.253906,227.837433 381.130920,226.836227 
	C377.438690,225.652496 373.240417,225.524399 369.703552,228.309174 
	C368.425568,229.315384 367.910004,231.168228 365.778748,231.622772 
	C363.199493,229.016357 366.620697,226.448608 366.058929,223.694565 
	C362.389526,222.753845 360.292389,223.617676 360.316467,227.854370 
	C360.378052,238.683411 360.400299,249.513565 360.303070,260.342041 
	C360.277893,263.143555 361.419769,264.690552 364.026062,265.436127 
	C365.038605,265.725769 366.467896,265.598541 366.646942,267.804321 
	C359.887939,267.804321 353.194702,267.804321 346.070679,267.804321 
	C346.551117,266.836823 346.645233,266.296631 346.963898,266.063629 
	C348.751831,264.756531 352.100922,265.278259 352.384613,262.324280 
	C352.876190,257.205841 353.306824,251.975357 352.141907,246.934891 
	C351.595612,244.571091 334.481293,244.409546 333.972961,246.779083 
	C332.754456,252.459259 332.787140,258.342072 333.968750,264.060181 
	C334.474762,266.508911 338.032227,265.068024 339.901947,268.127350 
	C332.631012,268.402771 326.039062,268.720612 318.881256,267.256042 
	C327.568024,265.644379 325.610107,259.331421 325.636963,253.999069 
	C325.677185,246.002151 325.563385,238.003601 325.686371,230.008377 
	C325.738190,226.637787 325.738098,223.595673 321.448914,222.877686 
	C320.712738,222.754456 320.596741,221.970917 321.164124,221.062317 
z"/>
<path fill="#000000" opacity="1.000000" stroke="none" 
	d="
M167.790405,237.514832 
	C167.793655,235.411514 167.795547,233.745911 167.796417,232.080307 
	C167.800232,224.724747 167.800125,224.724747 161.619278,221.330505 
	C168.480179,221.330505 175.341095,221.330505 182.209808,221.330505 
	C182.188538,221.505875 182.191635,222.071198 182.108215,222.084274 
	C176.142410,223.018845 175.934494,227.167709 176.106552,232.003372 
	C176.384720,239.821976 176.164566,247.657471 176.209076,255.485535 
	C176.236542,260.316010 174.498123,266.125397 182.914078,267.134155 
	C175.478622,268.628540 168.710144,268.390900 161.810593,268.148285 
	C161.946701,266.974274 161.929428,266.401611 162.027390,266.381195 
	C168.945908,264.937531 167.823151,259.561523 167.796539,254.697098 
	C167.738068,244.015198 168.766678,245.402908 158.457397,245.379822 
	C148.053940,245.356537 149.298264,244.326492 149.207428,254.828705 
	C149.204544,255.161789 149.207703,255.494949 149.208084,255.828064 
	C149.217026,263.816528 149.217026,263.816528 155.876511,267.815735 
	C148.292603,267.815735 141.625488,267.815735 134.858322,267.815735 
	C134.990295,267.039337 135.010178,266.465759 135.100830,266.454315 
	C140.542603,265.769287 141.062347,262.201294 140.895096,257.596741 
	C140.586899,249.112946 140.805878,240.610733 140.758453,232.116440 
	C140.735504,228.007996 142.276642,223.138809 134.951492,222.333496 
	C135.321960,221.968491 135.692429,221.603485 136.062897,221.238480 
	C142.384644,221.238480 148.706375,221.238480 155.288773,221.238480 
	C154.099411,224.229813 149.685471,222.263153 149.482407,225.485382 
	C149.189880,230.126907 149.278473,234.799423 149.372421,239.455307 
	C149.417282,241.679474 151.237961,241.962509 152.980331,241.992752 
	C156.477020,242.053452 159.995056,241.823059 163.466446,242.134506 
	C166.811798,242.434647 168.140579,241.202316 167.790405,237.514832 
z"/>
<path fill="#000000" opacity="1.000000" stroke="none" 
	d="
M273.208923,262.636139 
	C274.909119,262.786896 276.293945,262.420044 278.385773,264.133606 
	C273.332611,265.606659 268.924316,267.052490 264.425629,268.115906 
	C262.853333,268.487549 262.268951,266.838654 262.113007,265.443848 
	C261.947662,263.965271 261.913910,262.471985 261.773376,260.180756 
	C258.640594,263.774109 255.691010,266.486359 251.572708,267.698669 
	C242.929199,270.243073 236.675537,266.175018 235.593597,257.268616 
	C234.604156,249.123505 235.328934,240.964966 235.073883,232.817810 
	C234.926682,228.115631 236.790771,222.197464 228.159286,222.013260 
	C232.952942,220.084427 237.298462,220.427139 241.526443,221.033966 
	C243.956879,221.382767 243.277328,223.934464 243.292969,225.639206 
	C243.370911,234.131775 243.288742,242.625793 243.360977,251.118454 
	C243.422440,258.345520 246.219604,262.424835 251.073456,262.632721 
	C256.396667,262.860657 261.528412,257.886993 261.773468,251.550110 
	C262.095001,243.236420 261.879272,234.902863 261.957733,226.578445 
	C261.987823,223.383087 260.430908,222.107071 257.348236,222.117752 
	C255.996597,222.122437 254.307190,222.598679 253.173691,220.132339 
	C258.435211,219.154221 263.468750,219.423645 268.423553,219.999069 
	C270.866058,220.282745 270.269714,222.838226 270.279083,224.555023 
	C270.338959,235.545975 270.276276,246.537643 270.353607,257.528381 
	C270.367462,259.500153 269.469543,262.141327 273.208923,262.636139 
z"/>
<path fill="#000000" opacity="1.000000" stroke="none" 
	d="
M181.662262,242.973969 
	C181.892807,230.401413 192.418945,220.006439 204.806412,219.661453 
	C217.575790,219.305832 228.472122,229.042648 229.292999,241.542343 
	C230.216080,255.598373 220.789047,267.694214 208.417618,268.327515 
	C192.897720,269.122009 182.503540,259.447662 181.662262,242.973969 
M214.562912,226.934753 
	C207.614670,220.069977 200.481720,220.828598 195.242599,228.989548 
	C189.500641,237.933762 190.212936,251.635696 196.849487,259.901123 
	C202.762772,267.265747 210.236359,266.985809 215.734131,259.193787 
	C222.241959,249.970200 221.969284,238.077225 214.562912,226.934753 
z"/>
<path fill="#000000" opacity="1.000000" stroke="none" 
	d="
M315.335083,224.510895 
	C315.342285,228.240402 315.342285,231.539871 315.342285,235.171677 
	C312.570251,234.655075 312.428101,232.641418 311.678406,231.145935 
	C309.263123,226.327927 306.209503,222.404312 300.148682,222.204269 
	C293.995972,222.001175 290.785034,225.939346 288.285004,230.635849 
	C283.946930,238.785233 284.116516,247.300522 287.275024,255.730133 
	C289.363647,261.304443 293.655518,264.549774 299.653656,265.270020 
	C302.877441,265.657135 304.814026,264.390137 304.782684,260.887329 
	C304.775238,260.055298 304.821228,259.222504 304.802887,258.390930 
	C304.704559,253.932190 306.399536,248.652740 298.969910,247.202103 
	C305.892975,245.214005 311.878693,247.273346 318.467010,247.763031 
	C311.585297,250.383911 313.190735,255.699631 313.300812,260.420471 
	C313.369843,263.380676 316.417297,261.461975 317.566437,262.963135 
	C317.437531,263.343262 317.426086,263.974701 317.120789,264.190613 
	C308.038177,270.613678 291.326874,269.658112 283.502991,262.307831 
	C275.356079,254.654083 273.708191,240.262909 279.722473,230.020370 
	C285.209351,220.675980 296.819550,217.750107 307.872498,220.537247 
	C309.709503,221.000458 311.189850,222.381256 313.519135,221.449722 
	C315.460297,220.673401 315.094116,222.899948 315.335083,224.510895 
z"/>
<path fill="#000000" opacity="1.000000" stroke="none" 
	d="
M105.605888,268.312012 
	C102.593307,267.757690 102.627090,266.288086 104.864601,265.847687 
	C109.949982,264.846710 109.775345,261.387207 109.718674,257.552002 
	C109.603012,249.725601 109.792747,241.893784 109.614861,234.069702 
	C109.558418,231.587234 111.114685,227.928925 108.028481,226.875732 
	C104.342621,225.617905 100.082878,225.434967 96.651649,228.325241 
	C95.411522,229.369858 94.460068,230.757187 93.262962,232.117630 
	C91.259819,228.317902 91.583511,226.897614 95.329453,221.269272 
	C105.619698,223.967102 116.116310,222.099930 126.502594,222.673325 
	C127.910538,222.751068 129.057892,222.134644 130.197815,221.390305 
	C131.642807,220.446793 133.011154,221.054855 133.510147,222.388000 
	C134.640549,225.408081 136.953079,228.020721 137.019363,231.400391 
	C135.298462,232.604904 134.308502,231.457626 133.361038,230.640305 
	C131.572449,229.097427 129.654663,227.874329 127.377434,227.144989 
	C119.869049,224.740265 118.021805,225.970398 117.989426,233.623215 
	C117.956306,241.451111 117.977028,249.279236 117.979111,257.107269 
	C117.981033,264.295319 117.983925,264.295319 123.800484,268.337708 
	C117.878860,268.337708 111.957230,268.337708 105.605888,268.312012 
z"/>
</svg>